<?xml version="1.0" standalone="yes"?>

<svg version="1.1" viewBox="0.0 0.0 960.0 720.0" fill="none" stroke="none" stroke-linecap="square" stroke-miterlimit="10" xmlns="http://www.w3.org/2000/svg" xmlns:xlink="http://www.w3.org/1999/xlink"><clipPath id="p.0"><path d="m0 0l960.0 0l0 720.0l-960.0 0l0 -720.0z" clip-rule="nonzero"></path></clipPath><g clip-path="url(#p.0)"><path fill="#000000" fill-opacity="0.0" d="m0 0l960.0 0l0 720.0l-960.0 0z" fill-rule="nonzero"></path><path fill="#00ff00" d="m359.0472 463.3596l-14.27478 -61.632416l0 0c-85.655304 -41.160248 -120.576126 -131.00125 -80.67572 -207.55489c39.90036 -76.55364 141.56384 -114.76634 234.8677 -88.28077c93.30383 26.485573 147.7127 109.00152 125.697876 190.63223c-22.014832 81.63071 -113.248566 135.66101 -210.77249 124.82333z" fill-rule="nonzero"></path><path stroke="#000000" stroke-width="12.0" stroke-linejoin="round" stroke-linecap="butt" d="m359.0472 463.3596l-14.27478 -61.632416l0 0c-85.655304 -41.160248 -120.576126 -131.00125 -80.67572 -207.55489c39.90036 -76.55364 141.56384 -114.76634 234.8677 -88.28077c93.30383 26.485573 147.7127 109.00152 125.697876 190.63223c-22.014832 81.63071 -113.248566 135.66101 -210.77249 124.82333z" fill-rule="nonzero"></path><path fill="#ffffff" d="m372.9777 187.69292l0 131.66927l42.14792 0l0 -55.302704l26.029572 0l0 -25.04889l-26.029572 0l0 -24.96756l29.233215 0l0 -26.350113z" fill-rule="evenodd"></path><path fill="#ffffff" d="m517.74225 209.4887c-11.145996 0.596405 -19.65567 5.96402 -25.529022 16.10286l1.6018372 -14.151001l-40.445984 0l0 107.92163l40.445984 0l0 -42.6156c0 -10.464172 0.40045166 -17.14206 1.201355 -20.033691c0.8009033 -2.909729 2.936676 -5.1778564 6.4072876 -6.804413c3.4706116 -1.6265564 8.910126 -2.4398193 16.318542 -2.4398193l0 -37.979965z" fill-rule="evenodd"></path><path stroke="#000000" stroke-width="2.0" stroke-linejoin="round" stroke-linecap="butt" d="m372.9777 187.69292l0 131.66927l42.14792 0l0 -55.302704l26.029572 0l0 -25.04889l-26.029572 0l0 -24.96756l29.233215 0l0 -26.350113z" fill-rule="evenodd"></path><path stroke="#000000" stroke-width="2.0" stroke-linejoin="round" stroke-linecap="butt" d="m517.74225 209.4887c-11.145996 0.596405 -19.65567 5.96402 -25.529022 16.10286l1.6018372 -14.151001l-40.445984 0l0 107.92163l40.445984 0l0 -42.6156c0 -10.464172 0.40045166 -17.14206 1.201355 -20.033691c0.8009033 -2.909729 2.936676 -5.1778564 6.4072876 -6.804413c3.4706116 -1.6265564 8.910126 -2.4398193 16.318542 -2.4398193l0 -37.979965z" fill-rule="evenodd"></path><path fill="#ffffff" d="m472.53622 115.49213c-5.10614 3.5210876 -12.580566 5.847519 -22.42331 6.9793015l0 5.0930023l2.015564 0c4.7030334 0 7.7319946 0.176651 9.086914 0.52996063c1.3660889 0.34732056 2.2003174 0.8623047 2.502655 1.5449677c0.30233765 0.68266296 0.45352173 2.712677 0.45352173 6.090042l0 23.39009l20.35733 0l0 -43.627365z" fill-rule="evenodd"></path><path stroke="#000000" stroke-width="2.0" stroke-linejoin="round" stroke-linecap="butt" d="m472.53622 115.49213c-5.10614 3.5210876 -12.580566 5.847519 -22.42331 6.9793015l0 5.0930023l2.015564 0c4.7030334 0 7.7319946 0.176651 9.086914 0.52996063c1.3660889 0.34732056 2.2003174 0.8623047 2.502655 1.5449677c0.30233765 0.68266296 0.45352173 2.712677 0.45352173 6.090042l0 23.39009l20.35733 0l0 -43.627365z" fill-rule="evenodd"></path><path fill="#ffffff" d="m536.7431 144.22047c-3.5672607 0 -6.626953 0.38883972 -9.179138 1.1665039c-2.552124 0.7776642 -4.6257935 1.9242401 -6.220886 3.4396973c-1.5950928 1.5154572 -2.595642 3.057495 -3.001648 4.626129c-0.4060669 1.5619812 -0.6090698 3.6989136 -0.6090698 6.410797l0 1.7647095l15.747986 0l0 -4.606201c0 -2.133606 0.32385254 -3.5593262 0.97161865 -4.277176c0.65734863 -0.71784973 1.6530762 -1.0767822 2.9871826 -1.0767822c1.3340454 0 2.3249512 0.32569885 2.9726562 0.9770813c0.65740967 0.6447296 0.986084 1.6251221 0.986084 2.9411774c0 1.714859 -1.0827637 4.10437 -3.24823 7.168518c-2.1557617 3.0575104 -8.961548 11.026962 -20.417297 23.908356l0 6.9092865l38.67395 0l0 -8.255249l-19.271729 0c9.860657 -10.029953 15.796387 -16.590286 17.80719 -19.68103c2.0204468 -3.0907288 3.0306396 -6.0219574 3.0306396 -8.79364c0 -3.649063 -1.7932739 -6.663376 -5.379822 -9.042908c-3.5769043 -2.3861847 -8.860046 -3.5792694 -15.849487 -3.5792694z" fill-rule="evenodd"></path><path stroke="#000000" stroke-width="2.0" stroke-linejoin="round" stroke-linecap="butt" d="m536.7431 144.22047c-3.5672607 0 -6.626953 0.38883972 -9.179138 1.1665039c-2.552124 0.7776642 -4.6257935 1.9242401 -6.220886 3.4396973c-1.5950928 1.5154572 -2.595642 3.057495 -3.001648 4.626129c-0.4060669 1.5619812 -0.6090698 3.6989136 -0.6090698 6.410797l0 1.7647095l15.747986 0l0 -4.606201c0 -2.133606 0.32385254 -3.5593262 0.97161865 -4.277176c0.65734863 -0.71784973 1.6530762 -1.0767822 2.9871826 -1.0767822c1.3340454 0 2.3249512 0.32569885 2.9726562 0.9770813c0.65740967 0.6447296 0.986084 1.6251221 0.986084 2.9411774c0 1.714859 -1.0827637 4.10437 -3.24823 7.168518c-2.1557617 3.0575104 -8.961548 11.026962 -20.417297 23.908356l0 6.9092865l38.67395 0l0 -8.255249l-19.271729 0c9.860657 -10.029953 15.796387 -16.590286 17.80719 -19.68103c2.0204468 -3.0907288 3.0306396 -6.0219574 3.0306396 -8.79364c0 -3.649063 -1.7932739 -6.663376 -5.379822 -9.042908c-3.5769043 -2.3861847 -8.860046 -3.5792694 -15.849487 -3.5792694z" fill-rule="evenodd"></path><path fill="#ffffff" d="m589.9701 216.38846c-5.55719 0 -9.610779 0.79837036 -12.160767 2.3951263c-2.5500488 1.5902405 -3.8250732 4.6533966 -3.8250732 9.189484l0 4.047287l14.578491 0l0 -3.90065c0 -1.8183441 0.18444824 -3.0045013 0.5533447 -3.5584717c0.3768921 -0.5605011 1.0704956 -0.840744 2.0808716 -0.840744c0.8901367 0 1.5437012 0.26394653 1.9606934 0.79185486c0.4249878 0.5279083 0.6374512 1.6228333 0.6374512 3.2847595l0 2.6395264c0 1.5446167 -0.18041992 2.6786346 -0.54125977 3.402069c-0.36083984 0.7234192 -0.95025635 1.1926727 -1.7681885 1.4077454c-0.8179321 0.21507263 -2.9589844 0.32261658 -6.423218 0.32261658l0 6.892105c2.838745 0.039108276 4.7512817 0.192276 5.73761 0.45948792c0.9863281 0.26068115 1.7321167 0.81140137 2.2373047 1.6521454c0.505188 0.840744 0.75775146 2.170288 0.75775146 3.9886322l0 3.2847443c0 2.9719238 -0.18041992 4.8098297 -0.54125977 5.513687c-0.36083984 0.70388794 -1.1066284 1.0558167 -2.2373047 1.0558167c-1.0344238 0 -1.7040405 -0.27697754 -2.008728 -0.83096313c-0.2966919 -0.56048584 -0.44506836 -1.867218 -0.44506836 -3.9201965l0 -7.7133026l-14.578491 0l0 3.754013c0 4.5165253 0.41296387 7.6904907 1.2389526 9.521851c0.83392334 1.8248901 2.56604 3.3694763 5.196289 4.63385c2.6382446 1.2578735 6.2668457 1.8867798 10.885742 1.8867798c4.065613 0 7.397522 -0.5409241 9.9956665 -1.6228027c2.5981445 -1.0884094 4.4264526 -2.6721191 5.4849854 -4.7511597c1.0584717 -2.0855713 1.5877686 -5.0151215 1.5877686 -8.788681c0 -5.083542 -0.5413208 -8.312897 -1.6238403 -9.688065c-1.0825806 -1.3816833 -2.7304688 -2.3755798 -4.9437256 -2.9816895c2.2373047 -0.97761536 3.8010254 -2.0562286 4.691101 -3.2358704c0.8901367 -1.1861725 1.335144 -3.1087952 1.335144 -5.767868c0 -3.9299774 -1.2388916 -6.9996643 -3.7167969 -9.209045c-2.4778442 -2.209381 -7.192993 -3.3140717 -14.145447 -3.3140717z" fill-rule="evenodd"></path><path stroke="#000000" stroke-width="2.0" stroke-linejoin="round" stroke-linecap="butt" d="m589.9701 216.38846c-5.55719 0 -9.610779 0.79837036 -12.160767 2.3951263c-2.5500488 1.5902405 -3.8250732 4.6533966 -3.8250732 9.189484l0 4.047287l14.578491 0l0 -3.90065c0 -1.8183441 0.18444824 -3.0045013 0.5533447 -3.5584717c0.3768921 -0.5605011 1.0704956 -0.840744 2.0808716 -0.840744c0.8901367 0 1.5437012 0.26394653 1.9606934 0.79185486c0.4249878 0.5279083 0.6374512 1.6228333 0.6374512 3.2847595l0 2.6395264c0 1.5446167 -0.18041992 2.6786346 -0.54125977 3.402069c-0.36083984 0.7234192 -0.95025635 1.1926727 -1.7681885 1.4077454c-0.8179321 0.21507263 -2.9589844 0.32261658 -6.423218 0.32261658l0 6.892105c2.838745 0.039108276 4.7512817 0.192276 5.73761 0.45948792c0.9863281 0.26068115 1.7321167 0.81140137 2.2373047 1.6521454c0.505188 0.840744 0.75775146 2.170288 0.75775146 3.9886322l0 3.2847443c0 2.9719238 -0.18041992 4.8098297 -0.54125977 5.513687c-0.36083984 0.70388794 -1.1066284 1.0558167 -2.2373047 1.0558167c-1.0344238 0 -1.7040405 -0.27697754 -2.008728 -0.83096313c-0.2966919 -0.56048584 -0.44506836 -1.867218 -0.44506836 -3.9201965l0 -7.7133026l-14.578491 0l0 3.754013c0 4.5165253 0.41296387 7.6904907 1.2389526 9.521851c0.83392334 1.8248901 2.56604 3.3694763 5.196289 4.63385c2.6382446 1.2578735 6.2668457 1.8867798 10.885742 1.8867798c4.065613 0 7.397522 -0.5409241 9.9956665 -1.6228027c2.5981445 -1.0884094 4.4264526 -2.6721191 5.4849854 -4.7511597c1.0584717 -2.0855713 1.5877686 -5.0151215 1.5877686 -8.788681c0 -5.083542 -0.5413208 -8.312897 -1.6238403 -9.688065c-1.0825806 -1.3816833 -2.7304688 -2.3755798 -4.9437256 -2.9816895c2.2373047 -0.97761536 3.8010254 -2.0562286 4.691101 -3.2358704c0.8901367 -1.1861725 1.335144 -3.1087952 1.335144 -5.767868c0 -3.9299774 -1.2388916 -6.9996643 -3.7167969 -9.209045c-2.4778442 -2.209381 -7.192993 -3.3140717 -14.145447 -3.3140717z" fill-rule="evenodd"></path><path fill="#ffffff" d="m390.22736 121.37396c1.1066284 0 1.8082886 0.29343414 2.1049805 0.8802872c0.30474854 0.5808716 0.4570923 2.0300446 0.4570923 4.3475266l0 21.611893c0 2.1378326 -0.168396 3.512146 -0.505188 4.1229553c-0.336792 0.6108093 -1.0464783 0.916214 -2.1290283 0.916214c-1.0825806 0 -1.7882385 -0.2604828 -2.117035 -0.7814789c-0.32073975 -0.52098083 -0.48114014 -2.0480042 -0.48114014 -4.58107l0 -21.288513c0 -2.2456207 0.17242432 -3.676834 0.51724243 -4.2936325c0.35284424 -0.6227875 1.0705261 -0.9341812 2.1530762 -0.9341812zm-0.32476807 -6.709923c-3.9212646 0 -7.2611694 0.6018295 -10.019684 1.805481c-2.7505188 1.203659 -4.5908813 2.8025436 -5.5210876 4.7966537c-0.9221802 1.9941177 -1.3832703 4.9942703 -1.3832703 9.000458l0 15.225342c0 3.0720062 0.2886963 5.314636 0.86605835 6.7278748c0.57736206 1.4072571 1.5516663 2.7486572 2.9229126 4.02417c1.3712463 1.2755127 3.211609 2.215683 5.521057 2.8204956c2.3094788 0.5988312 5.2083435 0.8982544 8.696594 0.8982544c2.6462708 0 5.039917 -0.28744507 7.1809998 -0.86231995c2.1410522 -0.5748749 3.9693909 -1.5180359 5.484955 -2.829483c1.5155945 -1.3114471 2.513977 -2.721695 2.9950867 -4.2307587c0.48114014 -1.5090637 0.7217102 -3.9163666 0.7217102 -7.221924l0 -14.551651c0 -3.3055573 -0.22451782 -5.71286 -0.673584 -7.221924c-0.44104004 -1.5090561 -1.2870483 -2.8654175 -2.5379944 -4.069069c-1.2509766 -1.2036514 -3.1394348 -2.221672 -5.6654053 -3.0540466c-2.526001 -0.8383713 -5.3887634 -1.2575531 -8.588348 -1.2575531z" fill-rule="evenodd"></path><path stroke="#000000" stroke-width="2.0" stroke-linejoin="round" stroke-linecap="butt" d="m390.22736 121.37396c1.1066284 0 1.8082886 0.29343414 2.1049805 0.8802872c0.30474854 0.5808716 0.4570923 2.0300446 0.4570923 4.3475266l0 21.611893c0 2.1378326 -0.168396 3.512146 -0.505188 4.1229553c-0.336792 0.6108093 -1.0464783 0.916214 -2.1290283 0.916214c-1.0825806 0 -1.7882385 -0.2604828 -2.117035 -0.7814789c-0.32073975 -0.52098083 -0.48114014 -2.0480042 -0.48114014 -4.58107l0 -21.288513c0 -2.2456207 0.17242432 -3.676834 0.51724243 -4.2936325c0.35284424 -0.6227875 1.0705261 -0.9341812 2.1530762 -0.9341812zm-0.32476807 -6.709923c-3.9212646 0 -7.2611694 0.6018295 -10.019684 1.805481c-2.7505188 1.203659 -4.5908813 2.8025436 -5.5210876 4.7966537c-0.9221802 1.9941177 -1.3832703 4.9942703 -1.3832703 9.000458l0 15.225342c0 3.0720062 0.2886963 5.314636 0.86605835 6.7278748c0.57736206 1.4072571 1.5516663 2.7486572 2.9229126 4.02417c1.3712463 1.2755127 3.211609 2.215683 5.521057 2.8204956c2.3094788 0.5988312 5.2083435 0.8982544 8.696594 0.8982544c2.6462708 0 5.039917 -0.28744507 7.1809998 -0.86231995c2.1410522 -0.5748749 3.9693909 -1.5180359 5.484955 -2.829483c1.5155945 -1.3114471 2.513977 -2.721695 2.9950867 -4.2307587c0.48114014 -1.5090637 0.7217102 -3.9163666 0.7217102 -7.221924l0 -14.551651c0 -3.3055573 -0.22451782 -5.71286 -0.673584 -7.221924c-0.44104004 -1.5090561 -1.2870483 -2.8654175 -2.5379944 -4.069069c-1.2509766 -1.2036514 -3.1394348 -2.221672 -5.6654053 -3.0540466c-2.526001 -0.8383713 -5.3887634 -1.2575531 -8.588348 -1.2575531z" fill-rule="evenodd"></path><path fill="#ffffff" d="m473.0799 347.9895l-0.6043701 23.930725l14.220093 0c0 -1.3881531 0.063201904 -2.2712097 0.18960571 -2.6492004c0.13430786 -0.38449097 0.42660522 -0.74295044 0.8768921 -1.0753174c0.45031738 -0.33236694 1.0072632 -0.49856567 1.6708679 -0.49856567c1.0428162 0 1.7893677 0.32260132 2.2396545 0.96780396c0.45031738 0.6451721 0.6754761 1.8573608 0.6754761 3.6365356l0 9.41391c-0.047424316 3.3041687 -0.09085083 5.171295 -0.1303711 5.6014404c-0.031585693 0.43011475 -0.2685852 0.8309326 -0.71099854 1.2023926c-0.43450928 0.37149048 -1.0072632 0.55722046 -1.7182617 0.55722046c-1.5404968 0 -2.441101 -0.64520264 -2.7018127 -1.9355774c-0.26071167 -1.2903748 -0.39105225 -3.470337 -0.39105225 -6.5398865l0 -2.9620361l-14.362274 0l0 2.58078c0 4.418579 0.5924988 7.6836243 1.7774963 9.795166c1.1849976 2.1115417 3.187683 3.7017212 6.0079956 4.770508c2.8203125 1.0622864 6.079071 1.5934143 9.776306 1.5934143c3.2943115 0 6.0830383 -0.35516357 8.36615 -1.0655212c2.2910156 -0.7168884 4.076416 -1.7433167 5.3562317 -3.0793152c1.2798157 -1.3425293 2.1132507 -2.7991028 2.5003662 -4.3697205c0.394989 -1.5771179 0.5924988 -4.0470886 0.5924988 -7.409912l0 -6.7745056c0 -5.2006226 -1.0151672 -8.713348 -3.0454712 -10.538116c-2.0224 -1.8312988 -5.0125732 -2.7469482 -8.9704895 -2.7469482c-3.5076294 0 -6.3753357 1.085083 -8.603149 3.2552795l0 -8.064911l17.810638 0l0 -7.595642z" fill-rule="evenodd"></path><path stroke="#000000" stroke-width="2.0" stroke-linejoin="round" stroke-linecap="butt" d="m473.0799 347.9895l-0.6043701 23.930725l14.220093 0c0 -1.3881531 0.063201904 -2.2712097 0.18960571 -2.6492004c0.13430786 -0.38449097 0.42660522 -0.74295044 0.8768921 -1.0753174c0.45031738 -0.33236694 1.0072632 -0.49856567 1.6708679 -0.49856567c1.0428162 0 1.7893677 0.32260132 2.2396545 0.96780396c0.45031738 0.6451721 0.6754761 1.8573608 0.6754761 3.6365356l0 9.41391c-0.047424316 3.3041687 -0.09085083 5.171295 -0.1303711 5.6014404c-0.031585693 0.43011475 -0.2685852 0.8309326 -0.71099854 1.2023926c-0.43450928 0.37149048 -1.0072632 0.55722046 -1.7182617 0.55722046c-1.5404968 0 -2.441101 -0.64520264 -2.7018127 -1.9355774c-0.26071167 -1.2903748 -0.39105225 -3.470337 -0.39105225 -6.5398865l0 -2.9620361l-14.362274 0l0 2.58078c0 4.418579 0.5924988 7.6836243 1.7774963 9.795166c1.1849976 2.1115417 3.187683 3.7017212 6.0079956 4.770508c2.8203125 1.0622864 6.079071 1.5934143 9.776306 1.5934143c3.2943115 0 6.0830383 -0.35516357 8.36615 -1.0655212c2.2910156 -0.7168884 4.076416 -1.7433167 5.3562317 -3.0793152c1.2798157 -1.3425293 2.1132507 -2.7991028 2.5003662 -4.3697205c0.394989 -1.5771179 0.5924988 -4.0470886 0.5924988 -7.409912l0 -6.7745056c0 -5.2006226 -1.0151672 -8.713348 -3.0454712 -10.538116c-2.0224 -1.8312988 -5.0125732 -2.7469482 -8.9704895 -2.7469482c-3.5076294 0 -6.3753357 1.085083 -8.603149 3.2552795l0 -8.064911l17.810638 0l0 -7.595642z" fill-rule="evenodd"></path><path fill="#ffffff" d="m285.47272 232.05109c1.1435242 0 1.9151917 0.26071167 2.3149414 0.78211975c0.40908813 0.51490784 0.61361694 1.5740204 0.61361694 3.1773682l0 3.2555847c0 1.6815643 -0.19522095 2.7928314 -0.5857239 3.3338013c-0.3904724 0.5344391 -1.1435242 0.80166626 -2.2591858 0.80166626c-1.059845 0 -1.8128967 -0.27374268 -2.2591553 -0.821228c-0.44625854 -0.54748535 -0.6694031 -1.5349121 -0.6694031 -2.9622803l0 -3.607544c0 -1.5251312 0.19525146 -2.5646973 0.5857239 -3.1186981c0.3904724 -0.5605316 1.1435242 -0.8407898 2.2591858 -0.8407898zm-0.0418396 19.181534c1.1435242 0 1.9802551 0.29981995 2.5101929 0.8994446c0.52993774 0.59310913 0.79489136 1.7988739 0.79489136 3.6173096l0 6.071213c0 2.092163 -0.20916748 3.4380798 -0.62753296 4.0377197c-0.41836548 0.5930786 -1.2272034 0.88964844 -2.4265442 0.88964844c-1.1714172 0 -2.0314026 -0.29330444 -2.5799255 -0.8798828c-0.5392151 -0.5866089 -0.8088379 -1.9064331 -0.8088379 -3.9595032l0 -6.159195c0 -1.857544 0.24172974 -3.0730896 0.7251587 -3.646637c0.49273682 -0.5800781 1.296936 -0.8701172 2.4125977 -0.8701172zm-0.0836792 -26.484589c-6.442871 0 -11.281982 1.0232697 -14.517334 3.0698242c-3.235382 2.040039 -4.8530884 5.103348 -4.8530884 9.189926c0 2.365921 0.5206604 4.3179626 1.5619202 5.85614c1.0505676 1.5316467 2.6217651 2.6494293 4.7135925 3.3533478c-3.3190308 1.2709503 -5.294647 2.9622803 -5.9268494 5.074005c-0.6229248 2.1117249 -0.9343567 4.6047516 -0.9343567 7.4790497c0 4.2821045 0.63220215 7.342163 1.8966064 9.180145c1.2736816 1.8379822 3.374817 3.3142395 6.3033752 4.428772c2.9285889 1.114502 6.903076 1.6717834 11.923492 1.6717834c5.159851 0 9.273804 -0.5800781 12.341827 -1.7402344c3.0680237 -1.1666565 5.131958 -2.6592102 6.1918335 -4.4776306c1.0598755 -1.8184509 1.5897827 -4.64386 1.5897827 -8.476257c0 -5.2597656 -0.66937256 -8.587036 -2.0081482 -9.981827c-1.3387756 -1.4012909 -3.2493286 -2.4539032 -5.7316284 -3.1578064c2.9006653 -1.1145325 4.815857 -2.2388306 5.745575 -3.3729095c0.93899536 -1.1340637 1.4085083 -2.9818268 1.4085083 -5.543274c0 -4.0279236 -1.4224548 -7.1270905 -4.2673645 -9.29747c-2.8448792 -2.170395 -7.990814 -3.2555847 -15.437744 -3.2555847z" fill-rule="evenodd"></path><path stroke="#000000" stroke-width="2.0" stroke-linejoin="round" stroke-linecap="butt" d="m285.47272 232.05109c1.1435242 0 1.9151917 0.26071167 2.3149414 0.78211975c0.40908813 0.51490784 0.61361694 1.5740204 0.61361694 3.1773682l0 3.2555847c0 1.6815643 -0.19522095 2.7928314 -0.5857239 3.3338013c-0.3904724 0.5344391 -1.1435242 0.80166626 -2.2591858 0.80166626c-1.059845 0 -1.8128967 -0.27374268 -2.2591553 -0.821228c-0.44625854 -0.54748535 -0.6694031 -1.5349121 -0.6694031 -2.9622803l0 -3.607544c0 -1.5251312 0.19525146 -2.5646973 0.5857239 -3.1186981c0.3904724 -0.5605316 1.1435242 -0.8407898 2.2591858 -0.8407898zm-0.0418396 19.181534c1.1435242 0 1.9802551 0.29981995 2.5101929 0.8994446c0.52993774 0.59310913 0.79489136 1.7988739 0.79489136 3.6173096l0 6.071213c0 2.092163 -0.20916748 3.4380798 -0.62753296 4.0377197c-0.41836548 0.5930786 -1.2272034 0.88964844 -2.4265442 0.88964844c-1.1714172 0 -2.0314026 -0.29330444 -2.5799255 -0.8798828c-0.5392151 -0.5866089 -0.8088379 -1.9064331 -0.8088379 -3.9595032l0 -6.159195c0 -1.857544 0.24172974 -3.0730896 0.7251587 -3.646637c0.49273682 -0.5800781 1.296936 -0.8701172 2.4125977 -0.8701172zm-0.0836792 -26.484589c-6.442871 0 -11.281982 1.0232697 -14.517334 3.0698242c-3.235382 2.040039 -4.8530884 5.103348 -4.8530884 9.189926c0 2.365921 0.5206604 4.3179626 1.5619202 5.85614c1.0505676 1.5316467 2.6217651 2.6494293 4.7135925 3.3533478c-3.3190308 1.2709503 -5.294647 2.9622803 -5.9268494 5.074005c-0.6229248 2.1117249 -0.9343567 4.6047516 -0.9343567 7.4790497c0 4.2821045 0.63220215 7.342163 1.8966064 9.180145c1.2736816 1.8379822 3.374817 3.3142395 6.3033752 4.428772c2.9285889 1.114502 6.903076 1.6717834 11.923492 1.6717834c5.159851 0 9.273804 -0.5800781 12.341827 -1.7402344c3.0680237 -1.1666565 5.131958 -2.6592102 6.1918335 -4.4776306c1.0598755 -1.8184509 1.5897827 -4.64386 1.5897827 -8.476257c0 -5.2597656 -0.66937256 -8.587036 -2.0081482 -9.981827c-1.3387756 -1.4012909 -3.2493286 -2.4539032 -5.7316284 -3.1578064c2.9006653 -1.1145325 4.815857 -2.2388306 5.745575 -3.3729095c0.93899536 -1.1340637 1.4085083 -2.9818268 1.4085083 -5.543274c0 -4.0279236 -1.4224548 -7.1270905 -4.2673645 -9.29747c-2.8448792 -2.170395 -7.990814 -3.2555847 -15.437744 -3.2555847z" fill-rule="evenodd"></path><path fill="#ffffff" d="m322.86594 159.70726c1.0148315 0 1.7385559 0.32261658 2.1712341 0.96788025c0.44052124 0.6452484 0.6607971 2.0139618 0.6607971 4.106125l0 8.593567c0 1.7402191 -0.23205566 2.910141 -0.6961975 3.5097656c-0.4562683 0.59310913 -1.1800232 0.8896637 -2.1712341 0.8896637c-0.6607971 0 -1.3058777 -0.2346344 -1.9352112 -0.7039032c-0.62145996 -0.4692688 -0.93218994 -1.7011108 -0.93218994 -3.6955261l0 -8.886856c0 -2.1899414 0.3303833 -3.5325775 0.99121094 -4.0279236c0.6607971 -0.5018616 1.2980042 -0.75279236 1.9115906 -0.75279236zm-0.63720703 -7.303055c-3.0916138 0 -5.8056335 0.38127136 -8.142059 1.1438446c-2.3363953 0.76257324 -4.165436 1.834732 -5.48703 3.2164764c-1.3216248 1.3752289 -2.1436768 2.874298 -2.466217 4.4971924c-0.31466675 1.6229095 -0.47201538 4.0963745 -0.47201538 7.4203796l0 3.7835236c0 2.7960815 0.27142334 5.0153503 0.814209 6.6578064c0.54281616 1.642456 1.8172302 3.0502777 3.8232422 4.2234497c2.006012 1.1731873 4.318817 1.7597809 6.938446 1.7597809c2.1004028 0 3.8586426 -0.31611633 5.2746277 -0.94833374c1.4160156 -0.6387329 2.4780273 -1.5935669 3.1860352 -2.8645172l0 7.567032c0 1.7793274 -0.031463623 2.9622803 -0.09439087 3.548874c-0.05508423 0.5865936 -0.31860352 1.0656433 -0.7906189 1.437149c-0.47201538 0.37150574 -1.0737915 0.55726624 -1.8054199 0.55726624c-0.87319946 0 -1.5654602 -0.19554138 -2.0768127 -0.5865936c-0.503479 -0.3910675 -0.7905884 -0.8733673 -0.86138916 -1.4469299c-0.07080078 -0.5800781 -0.10620117 -1.9748535 -0.10620117 -4.1843414l-14.301727 0c0 2.9720612 0.5585327 5.4357452 1.6756287 7.391037c1.124939 1.955307 2.9657593 3.4706726 5.5224304 4.5460815c2.5645447 1.0754242 5.8646545 1.6131287 9.900269 1.6131287c3.256836 0 6.1242676 -0.42364502 8.602264 -1.2709503c2.4780273 -0.8538208 4.4407654 -2.1312714 5.8882446 -3.8323975c1.4553528 -1.7011108 2.2774353 -3.5032501 2.466217 -5.4064026c0.18881226 -1.9096832 0.28320312 -5.6899414 0.28320312 -11.340775l0 -6.5991364c0 -5.2206726 -0.10620117 -8.740219 -0.31860352 -10.55864c-0.21240234 -1.8184357 -0.99121094 -3.5521393 -2.3363953 -5.201111c-1.3452148 -1.6555023 -3.2450256 -2.9231873 -5.699463 -3.80307c-2.4544067 -0.8798828 -5.593231 -1.3198242 -9.416473 -1.3198242z" fill-rule="evenodd"></path><path stroke="#000000" stroke-width="2.0" stroke-linejoin="round" stroke-linecap="butt" d="m322.86594 159.70726c1.0148315 0 1.7385559 0.32261658 2.1712341 0.96788025c0.44052124 0.6452484 0.6607971 2.0139618 0.6607971 4.106125l0 8.593567c0 1.7402191 -0.23205566 2.910141 -0.6961975 3.5097656c-0.4562683 0.59310913 -1.1800232 0.8896637 -2.1712341 0.8896637c-0.6607971 0 -1.3058777 -0.2346344 -1.9352112 -0.7039032c-0.62145996 -0.4692688 -0.93218994 -1.7011108 -0.93218994 -3.6955261l0 -8.886856c0 -2.1899414 0.3303833 -3.5325775 0.99121094 -4.0279236c0.6607971 -0.5018616 1.2980042 -0.75279236 1.9115906 -0.75279236zm-0.63720703 -7.303055c-3.0916138 0 -5.8056335 0.38127136 -8.142059 1.1438446c-2.3363953 0.76257324 -4.165436 1.834732 -5.48703 3.2164764c-1.3216248 1.3752289 -2.1436768 2.874298 -2.466217 4.4971924c-0.31466675 1.6229095 -0.47201538 4.0963745 -0.47201538 7.4203796l0 3.7835236c0 2.7960815 0.27142334 5.0153503 0.814209 6.6578064c0.54281616 1.642456 1.8172302 3.0502777 3.8232422 4.2234497c2.006012 1.1731873 4.318817 1.7597809 6.938446 1.7597809c2.1004028 0 3.8586426 -0.31611633 5.2746277 -0.94833374c1.4160156 -0.6387329 2.4780273 -1.5935669 3.1860352 -2.8645172l0 7.567032c0 1.7793274 -0.031463623 2.9622803 -0.09439087 3.548874c-0.05508423 0.5865936 -0.31860352 1.0656433 -0.7906189 1.437149c-0.47201538 0.37150574 -1.0737915 0.55726624 -1.8054199 0.55726624c-0.87319946 0 -1.5654602 -0.19554138 -2.0768127 -0.5865936c-0.503479 -0.3910675 -0.7905884 -0.8733673 -0.86138916 -1.4469299c-0.07080078 -0.5800781 -0.10620117 -1.9748535 -0.10620117 -4.1843414l-14.301727 0c0 2.9720612 0.5585327 5.4357452 1.6756287 7.391037c1.124939 1.955307 2.9657593 3.4706726 5.5224304 4.5460815c2.5645447 1.0754242 5.8646545 1.6131287 9.900269 1.6131287c3.256836 0 6.1242676 -0.42364502 8.602264 -1.2709503c2.4780273 -0.8538208 4.4407654 -2.1312714 5.8882446 -3.8323975c1.4553528 -1.7011108 2.2774353 -3.5032501 2.466217 -5.4064026c0.18881226 -1.9096832 0.28320312 -5.6899414 0.28320312 -11.340775l0 -6.5991364c0 -5.2206726 -0.10620117 -8.740219 -0.31860352 -10.55864c-0.21240234 -1.8184357 -0.99121094 -3.5521393 -2.3363953 -5.201111c-1.3452148 -1.6555023 -3.2450256 -2.9231873 -5.699463 -3.80307c-2.4544067 -0.8798828 -5.593231 -1.3198242 -9.416473 -1.3198242z" fill-rule="evenodd"></path><path fill="#ffffff" d="m308.22177 303.69815l0 8.534729l15.11264 0l-10.870483 38.94879l15.226257 0l9.772095 -37.1304l0 -10.353119z" fill-rule="evenodd"></path><path stroke="#000000" stroke-width="2.0" stroke-linejoin="round" stroke-linecap="butt" d="m308.22177 303.69815l0 8.534729l15.11264 0l-10.870483 38.94879l15.226257 0l9.772095 -37.1304l0 -10.353119z" fill-rule="evenodd"></path><path fill="#ffffff" d="m397.29773 375.1722c1.014801 0 1.7464294 0.3128662 2.1948242 0.9385681c0.44839478 0.6256714 0.6726074 1.7793274 0.6726074 3.4608765l0 8.886841c0 2.1899414 -0.33041382 3.5358582 -0.99121094 4.0377197c-0.6607971 0.4953308 -1.2980042 0.7430115 -1.9116211 0.7430115c-1.014801 0 -1.7424622 -0.32263184 -2.183014 -0.967865c-0.43267822 -0.6452637 -0.6489868 -2.013977 -0.6489868 -4.10614l0 -8.593567c0 -1.7402344 0.2281189 -2.9068909 0.6843872 -3.5c0.46414185 -0.5996094 1.191803 -0.8994446 2.183014 -0.8994446zm0.10620117 -23.96225c-3.2568054 0 -6.1321106 0.4269104 -8.6258545 1.2807312c-2.4859009 0.84729004 -4.448639 2.121521 -5.8882446 3.8226318c-1.4396057 1.7011108 -2.2616882 3.5065002 -2.466217 5.4161987c-0.19668579 1.9031372 -0.29501343 5.6801453 -0.29501343 11.330963l0 6.569824c0 5.240204 0.11013794 8.769531 0.33041382 10.587982c0.2281189 1.8184204 1.0069275 3.5553894 2.3364258 5.2108765c1.3373413 1.6489563 3.2332153 2.913391 5.687622 3.793274c2.4544373 0.87991333 5.6050415 1.3198547 9.451874 1.3198547c3.0916138 0 5.7977905 -0.38128662 8.118469 -1.1438599c2.3285522 -0.76257324 4.1575623 -1.8314819 5.48703 -3.2066956c1.3373413 -1.3817444 2.1594238 -2.8840942 2.466217 -4.5069885c0.30682373 -1.6228943 0.46020508 -4.096344 0.46020508 -7.4203796l0 -3.7835083c0 -2.7960815 -0.27139282 -5.0153503 -0.814209 -6.6578064c-0.54278564 -1.642456 -1.8171997 -3.0502625 -3.8232117 -4.2234497c-2.006012 -1.1731873 -4.3188477 -1.7597656 -6.938446 -1.7597656c-2.0768127 0 -3.8232422 0.31936646 -5.239258 0.95809937c-1.4160156 0.63220215 -2.4898071 1.5837708 -3.221405 2.8547363l0 -7.5670166c0 -1.7793274 0.03540039 -2.9623108 0.10620117 -3.5488892c0.07080078 -0.58657837 0.3421936 -1.0656433 0.81417847 -1.4371643c0.47201538 -0.37149048 1.073822 -0.557251 1.8054199 -0.557251c0.87319946 0 1.561554 0.19552612 2.065033 0.5866089c0.511322 0.39105225 0.79452515 0.87661743 0.8496094 1.4566956c0.062927246 0.57354736 0.09439087 1.9650574 0.09439087 4.1745605l14.301697 0c0 -2.972046 -0.55459595 -5.43573 -1.6638184 -7.3910522c-1.1091919 -1.9552917 -2.9500122 -3.470642 -5.5224304 -4.5460815c-2.5724182 -1.0754089 -5.8646545 -1.6131287 -9.876678 -1.6131287z" fill-rule="evenodd"></path><path stroke="#000000" stroke-width="2.0" stroke-linejoin="round" stroke-linecap="butt" d="m397.29773 375.1722c1.014801 0 1.7464294 0.3128662 2.1948242 0.9385681c0.44839478 0.6256714 0.6726074 1.7793274 0.6726074 3.4608765l0 8.886841c0 2.1899414 -0.33041382 3.5358582 -0.99121094 4.0377197c-0.6607971 0.4953308 -1.2980042 0.7430115 -1.9116211 0.7430115c-1.014801 0 -1.7424622 -0.32263184 -2.183014 -0.967865c-0.43267822 -0.6452637 -0.6489868 -2.013977 -0.6489868 -4.10614l0 -8.593567c0 -1.7402344 0.2281189 -2.9068909 0.6843872 -3.5c0.46414185 -0.5996094 1.191803 -0.8994446 2.183014 -0.8994446zm0.10620117 -23.96225c-3.2568054 0 -6.1321106 0.4269104 -8.6258545 1.2807312c-2.4859009 0.84729004 -4.448639 2.121521 -5.8882446 3.8226318c-1.4396057 1.7011108 -2.2616882 3.5065002 -2.466217 5.4161987c-0.19668579 1.9031372 -0.29501343 5.6801453 -0.29501343 11.330963l0 6.569824c0 5.240204 0.11013794 8.769531 0.33041382 10.587982c0.2281189 1.8184204 1.0069275 3.5553894 2.3364258 5.2108765c1.3373413 1.6489563 3.2332153 2.913391 5.687622 3.793274c2.4544373 0.87991333 5.6050415 1.3198547 9.451874 1.3198547c3.0916138 0 5.7977905 -0.38128662 8.118469 -1.1438599c2.3285522 -0.76257324 4.1575623 -1.8314819 5.48703 -3.2066956c1.3373413 -1.3817444 2.1594238 -2.8840942 2.466217 -4.5069885c0.30682373 -1.6228943 0.46020508 -4.096344 0.46020508 -7.4203796l0 -3.7835083c0 -2.7960815 -0.27139282 -5.0153503 -0.814209 -6.6578064c-0.54278564 -1.642456 -1.8171997 -3.0502625 -3.8232117 -4.2234497c-2.006012 -1.1731873 -4.3188477 -1.7597656 -6.938446 -1.7597656c-2.0768127 0 -3.8232422 0.31936646 -5.239258 0.95809937c-1.4160156 0.63220215 -2.4898071 1.5837708 -3.221405 2.8547363l0 -7.5670166c0 -1.7793274 0.03540039 -2.9623108 0.10620117 -3.5488892c0.07080078 -0.58657837 0.3421936 -1.0656433 0.81417847 -1.4371643c0.47201538 -0.37149048 1.073822 -0.557251 1.8054199 -0.557251c0.87319946 0 1.561554 0.19552612 2.065033 0.5866089c0.511322 0.39105225 0.79452515 0.87661743 0.8496094 1.4566956c0.062927246 0.57354736 0.09439087 1.9650574 0.09439087 4.1745605l14.301697 0c0 -2.972046 -0.55459595 -5.43573 -1.6638184 -7.3910522c-1.1091919 -1.9552917 -2.9500122 -3.470642 -5.5224304 -4.5460815c-2.5724182 -1.0754089 -5.8646545 -1.6131287 -9.876678 -1.6131287z" fill-rule="evenodd"></path><path fill="#ffffff" d="m549.0557 314.52054l0 20.207611l-6.1204834 0l6.1204834 -20.207611zm-4.5043945 -10.822388l-12.000244 31.029999l0 8.094788l16.504639 0l0 8.358734l13.891357 0l0 -8.358734l3.9542236 0l0 -8.094788l-3.9542236 0l0 -31.029999z" fill-rule="evenodd"></path><path stroke="#000000" stroke-width="2.0" stroke-linejoin="round" stroke-linecap="butt" d="m549.0557 314.52054l0 20.207611l-6.1204834 0l6.1204834 -20.207611zm-4.5043945 -10.822388l-12.000244 31.029999l0 8.094788l16.504639 0l0 8.358734l13.891357 0l0 -8.358734l3.9542236 0l0 -8.094788l-3.9542236 0l0 -31.029999z" fill-rule="evenodd"></path></g></svg>

